<svg viewBox="0 0 241.3 96.519999" version="1.1">
   <path
      d="m 28.019523,90.387564 c -2.300076,-0.79473 -4.131503,-2.77716 -4.608232,-4.98818 l -0.174895,-0.81114 -1.378749,0.19652 c -7.235537,1.03126 -12.2653996,-1.77067 -13.8267866,-7.70236 -0.592472,-2.2508 -0.585912,-7.26712 0.01349,-10.31875 0.49325,-2.51119 2.0279396,-7.63714 2.8281206,-9.44608 0.287383,-0.64968 0.470176,-1.23357 0.406208,-1.29754 -0.156183,-0.15618 -4.3996193,1.35237 -6.1941135,2.20202 -1.008951,0.47772 -1.519699,0.59694 -1.71605,0.40059 -0.1537549,-0.15375 -0.1977269,-0.41195 -0.09771,-0.57378 0.254079,-0.41111 3.228392,-1.86237 6.3245639,-3.08596 l 2.6102206,-1.031546 1.854983,-3.70416 c 4.290373,-8.56733 10.968087,-18.951061 16.517437,-25.684331 0.557363,-0.676272 1.713026,-2.07958 2.568141,-3.118464 0.855114,-1.03888 2.891681,-3.258092 4.525703,-4.931582 8.895794,-9.1106533 15.186874,-13.6496523 20.54805,-14.8253673 2.550755,-0.559385 3.93087,0.198557 3.93087,2.158784 0,3.468269 -7.752544,13.4569023 -16.915668,21.7947083 -3.193288,2.90567 -4.383291,3.684818 -4.383291,2.869941 0,-0.16778 2.085416,-2.429968 4.634259,-5.027083 4.850212,-4.942066 8.26643,-8.888912 11.033469,-12.747257 1.927283,-2.6873913 4.043696,-6.3364393 4.043717,-6.9720413 3.5e-5,-1.132961 -2.361509,-0.685397 -5.556237,1.053027 -8.880049,4.832116 -21.568577,19.2286823 -31.411664,35.6400853 -1.863948,3.10776 -6.266547,11.49019 -6.114637,11.6421 0.05768,0.0577 2.184617,-0.4067 4.726525,-1.03195 2.541907,-0.62525 6.747186,-1.54046 9.345064,-2.0338 l 4.723413,-0.89698 2.580664,-3.31052 c 8.869881,-11.378437 19.540504,-21.152183 27.466656,-25.15805 3.870663,-1.956229 6.046507,-1.570314 5.067583,0.898804 -0.828495,2.089695 -5.277946,8.304914 -9.01664,12.594902 -2.06379,2.368106 -2.508428,2.694239 -2.764269,2.027526 -0.102883,-0.268107 0.305541,-0.9614 1.143002,-1.940229 3.227954,-3.772852 9.335554,-12.538029 9.335554,-13.397699 0,-0.544844 -3.534408,1.249138 -6.35,3.22311 -6.02501,4.224044 -17.851793,16.758636 -22.369606,23.708386 l -0.500134,0.76936 1.314556,-0.1728 c 4.221988,-0.55498 21.202976,-1.48902 27.376017,-1.50583 l 3.571875,-0.01 1.455208,-2.16267 c 1.943765,-2.88874 6.903945,-9.481562 8.577268,-11.400471 1.615488,-1.852586 2.460572,-2.370262 3.204864,-1.963208 0.735076,0.402016 0.840317,0.630997 0.707117,1.538533 -0.139903,0.95322 -3.999576,8.817176 -5.701503,11.616626 -0.661086,1.0874 -1.178851,1.99381 -1.150589,2.01423 0.02826,0.0204 7.444338,0.10725 16.480169,0.19293 l 16.428784,0.15579 0.60951,-1.11168 c 4.44284,-8.103324 12.57408,-19.649418 17.52091,-24.879129 1.21908,-1.28879 1.58433,-1.528095 2.22106,-1.455208 1.15811,0.13257 1.543,1.152233 1.15885,3.070086 -0.42285,2.111116 -2.20664,7.334536 -3.63462,10.643188 -1.30531,3.024436 -4.64939,9.622693 -6.3659,12.560673 -0.59288,1.01478 -1.03977,1.88325 -0.99309,1.92993 0.0467,0.0467 1.55797,0.20027 3.35842,0.3413 12.91224,1.01144 31.5236,3.53327 43.7548,5.92875 1.01865,0.1995 3.16177,0.6054 4.7625,0.90199 1.60073,0.2966 4.81542,0.899916 7.14375,1.340716 12.74727,2.41332 18.80587,3.02933 25.86874,2.63023 5.93522,-0.33537 11.16596,-1.41132 15.04038,-3.09376 2.07165,-0.899586 7.85713,-4.842466 12.05214,-8.213666 1.16759,-0.9383 2.07678,-1.02855 2.562,-0.25433 0.43868,0.69998 -0.11068,1.44892 -3.90167,5.31908 -3.59342,3.668466 -6.14817,5.669306 -9.23864,7.235556 -6.90681,3.50039 -16.59218,4.74499 -28.62461,3.67838 -7.06699,-0.62646 -8.85563,-0.9318 -28.7073,-4.90064 -14.97239,-2.99336 -31.89918,-5.461196 -44.61905,-6.505226 l -2.15343,-0.17675 -1.39721,2.08212 c -3.15226,4.697466 -7.49301,10.168236 -10.99403,13.856076 -1.75799,1.8518 -1.93679,2.15229 -2.67634,4.49791 -1.76007,5.58244 -2.26626,7.9438 -2.00068,9.33312 0.37899,1.98255 4.88996,0.76471 11.98742,-3.23626 2.02781,-1.14312 9.37462,-6.10589 9.78457,-6.60948 0.0728,-0.0894 0.66807,-0.57343 1.32292,-1.07566 0.65484,-0.50223 1.99735,-1.60048 2.98335,-2.44056 2.71449,-2.31275 3.63275,-1.97988 2.61514,0.94798 -1.40838,4.0522 -1.84312,7.89785 -0.96538,8.53966 1.17039,0.85582 4.12285,0.23603 7.79903,-1.6372 2.76938,-1.41116 4.98499,-2.99193 8.41573,-6.00441 3.66261,-3.21607 4.18744,-3.10396 3.25229,0.69472 -0.97882,3.97612 -0.68568,4.6653 1.98213,4.65995 3.73168,-0.007 8.83643,-2.22245 14.7129,-6.38398 3.71179,-2.62857 4.25552,-2.43401 2.72624,0.97549 -0.51914,1.15738 -1.061,2.3153 -1.20414,2.57315 -0.14314,0.25784 -0.33165,0.98973 -0.41892,1.62642 -0.14414,1.05163 -0.0926,1.20094 0.56323,1.63063 0.95501,0.62575 4.53179,0.81392 7.22852,0.38028 5.31687,-0.85497 9.18219,-2.50404 11.62486,-4.95956 0.90829,-0.91307 1.76347,-1.66012 1.9004,-1.66012 0.32052,0 0.63286,0.9735 0.42188,1.31488 -0.50394,0.8154 3.04415,3.60707 7.23571,5.69313 5.28131,2.62841 10.47369,4.30723 19.21766,6.21355 5.75289,1.25421 10.29115,2.34117 11.16999,2.6753 0.65035,0.24726 0.82599,1.15924 0.26475,1.37461 -0.32636,0.12524 -5.01461,-0.34909 -7.20141,-0.72859 -12.8148,-2.22391 -25.02215,-7.19135 -30.4114,-12.37508 -0.71898,-0.69156 -1.36731,-1.25738 -1.44073,-1.25738 -0.0734,0 -0.43767,0.28966 -0.80944,0.64369 -2.89168,2.75376 -10.09106,4.95885 -15.62489,4.78573 -2.38214,-0.0745 -3.92154,-0.54635 -4.95733,-1.51942 -0.7786,-0.73146 -0.80573,-2.5899 -0.0631,-4.32239 0.29469,-0.6875 0.48453,-1.30129 0.42187,-1.36396 -0.0627,-0.0627 -0.81556,0.36497 -1.67309,0.95031 -2.09382,1.42924 -6.42885,3.5787 -8.54502,4.23694 -4.35184,1.35364 -6.84892,1.34114 -8.23129,-0.0412 -0.82474,-0.82474 -0.83133,-0.85264 -0.68969,-2.91911 l 0.14301,-2.08641 -0.6923,0.61949 c -0.38077,0.34071 -0.87627,0.7903 -1.10112,0.99909 -1.01377,0.94135 -4.71418,3.54522 -6.29259,4.42791 -3.74329,2.09337 -8.04897,3.06495 -9.99856,2.2562 -1.61447,-0.66974 -2.12523,-2.5323 -1.57144,-5.73046 0.20061,-1.15847 0.30829,-2.16277 0.23929,-2.23176 -0.069,-0.069 -0.56974,0.28984 -1.11277,0.79741 -4.69692,4.39024 -13.53593,9.84625 -18.9826,11.71731 -1.32276,0.4544 -2.90473,0.77349 -4.22974,0.85317 -2.32168,0.1396 -3.03655,-0.0888 -3.89398,-1.24416 -0.70236,-0.94642 -0.88038,-4.01699 -0.39002,-6.72731 0.21063,-1.16417 0.35272,-2.15152 0.31576,-2.19411 -0.037,-0.0426 -1.06422,0.64646 -2.282811,1.53123 -3.152551,2.28894 -7.260646,4.2755 -8.947659,4.32683 -1.935609,0.0589 -2.487956,-0.57952 -2.660663,-3.0752 l -0.132291,-1.91167 -1.984375,1.87011 c -3.852432,3.63058 -7.306578,6.20251 -10.113452,7.53038 -1.951337,0.92314 -2.660116,0.97699 -3.380299,0.2568 -0.880631,-0.88063 -0.626263,-3.88625 0.626981,-7.40833 0.233008,-0.65484 0.425384,-1.28344 0.427503,-1.39688 0.0021,-0.11344 -0.894906,0.5606 -1.993381,1.49787 -5.166186,4.40803 -11.854289,7.80616 -14.203429,7.21657 -1.808832,-0.45399 -2.196587,-2.0299 -1.297369,-5.27276 0.2715,-0.97912 0.414727,-1.78022 0.318281,-1.78022 -0.09645,0 -0.646007,0.49138 -1.221243,1.09195 -2.882789,3.00976 -9.466218,8.01718 -13.084427,9.95214 -4.944141,2.64406 -10.476444,3.65964 -13.758333,2.52566 z m 7.856299,-2.45148 c 2.581315,-0.87293 3.936691,-1.52842 6.298909,-3.04632 6.583578,-4.23043 16.183071,-13.96266 19.053282,-19.31674 1.304041,-2.43255 5.275066,-9.31124 6.338808,-10.98021 2.162313,-3.392576 3.315203,-5.287686 3.315203,-5.449506 0,-0.41481 -21.602788,0.32172 -28.839584,0.98327 l -3.307292,0.30234 -0.773237,1.22205 c -4.978921,7.868916 -7.943374,14.091226 -10.162289,21.330386 -1.174194,3.83079 -2.082966,8.33454 -1.681694,8.33425 0.435867,-2.7e-4 3.133151,-1.14724 5.789359,-2.4617 6.85964,-3.3946 14.388057,-8.91224 19.902493,-14.58671 1.606701,-1.65333 2.38025,-2.2694 2.778125,-2.21255 2.242815,0.3205 -1.849303,5.71533 -8.149826,10.7443 -5.079397,4.05429 -12.825487,8.5054 -17.889389,10.27973 l -2.513542,0.88071 0.02156,1.04214 c 0.02609,1.26117 1.080987,2.7717 2.312254,3.31096 0.475417,0.20822 1.783786,0.3778 3.008945,0.39 1.745644,0.0174 2.621497,-0.13186 4.497917,-0.7664 z m 39.696545,-5.83754 c 2.030354,-1.14587 4.733274,-3.26905 8.507833,-6.68303 4.136453,-3.74131 4.382865,-3.9288 4.901755,-3.72968 0.363583,0.13952 0.41709,0.59567 0.358037,3.05239 -0.07583,3.1546 0.08426,3.52793 1.383583,3.22656 2.305198,-0.53468 7.165555,-3.69919 10.360425,-6.74553 1.75056,-1.66918 1.7648,-1.69448 2.88011,-5.11629 1.23435,-3.78704 3.5733,-9.45734 5.52434,-13.392586 l 1.26122,-2.5439 -2.27288,-0.17541 c -2.51872,-0.19439 -13.465427,-0.57183 -23.836433,-0.82188 l -6.746875,-0.16267 -2.116667,3.23553 c -2.293458,3.505766 -7.49559,10.571606 -10.602103,14.400376 -2.692241,3.31818 -7.521855,12.94908 -7.521855,14.99958 0,0.48498 2.126358,-0.045 4.04631,-1.00859 5.17697,-2.59814 12.148889,-8.5109 15.044269,-12.75878 1.471121,-2.15831 2.36949,-2.78306 3.039097,-2.11345 0.593561,0.59356 0.315955,1.21625 -1.767083,3.96368 -1.929607,2.54507 -2.841284,4.6168 -4.110974,9.34191 -1.099614,4.09219 -0.889098,4.47484 1.667891,3.03177 z m -54.206239,0.37012 1.626312,-0.16998 0.0049,-1.61596 c 0.01945,-6.44313 4.090091,-17.93996 9.363959,-26.446796 0.978746,-1.57873 1.713238,-2.93673 1.632201,-3.01776 -0.277151,-0.27716 -12.34923,1.87952 -16.422502,2.93388 l -1.320424,0.341786 -0.880394,2.10001 c -3.017362,7.19734 -4.829276,14.76424 -4.471725,18.67477 0.287524,3.14465 1.097388,4.80495 2.969438,6.08765 1.752081,1.2005 3.778779,1.50117 7.498259,1.1124 z m 89.957432,-22.76818 c 0.89596,-1.19261 2.65025,-3.68799 3.89842,-5.545296 2.47767,-3.68683 2.48214,-3.73547 0.34685,-3.7771 -0.94502,-0.0184 -0.96373,0.003 -2.03069,2.2965 -4.29581,9.235276 -4.68459,10.138106 -4.06756,9.445626 0.12318,-0.13825 0.95702,-1.22713 1.85298,-2.41973 z m 10.1694,-15.889436 c 1.73694,-3.08113 4.8627,-9.304324 6.34096,-12.624459 2.28545,-5.13306 3.06163,-7.0231 2.82381,-6.876116 -0.41655,0.257445 -4.60948,6.262592 -6.77504,9.703282 -2.17864,3.461473 -6.96316,11.823503 -6.96316,12.169693 0,0.11401 0.70181,0.20729 1.55959,0.20729 h 1.55958 z m 43.934,-9.741678 c -0.24705,-0.643819 0.25871,-1.304674 0.99849,-1.304674 0.52653,0 0.63262,0.13312 0.63262,0.79375 0,0.669629 -0.11401,0.806866 -0.72911,0.877615 -0.49645,0.05711 -0.78427,-0.0599 -0.902,-0.366691 z m 44.19835,0.0337 c -0.28183,-0.734435 0.0191,-1.338371 0.66693,-1.338371 0.72852,0 1.24224,0.660033 1.00166,1.286955 -0.20594,0.536689 -1.46746,0.575564 -1.66859,0.05142 z" />
</svg>